#define x_width 32
#define x_height 32
static char x_bits[] = {
0x00, 0x00, 0x00, 0x00, 
0x00, 0x00, 0x00, 0x00, 
0x00, 0x00, 0x00, 0x00, 
0x00, 0x00, 0x00, 0x00, 
0x00, 0x00, 0x00, 0x00, 
0x00, 0x00, 0x00, 0x00, 
0x00, 0x00, 0x00, 0x00, 
0x00, 0x00, 0x00, 0x00, 
0x00, 0x00, 0x00, 0x00, 
0x00, 0x00, 0x00, 0x00, 
0x00, 0x00, 0x00, 0x00, 
0x00, 0x00, 0x80, 0x00, 
0x00, 0x00, 0x80, 0x00, 
0x00, 0x00, 0xc0, 0x00, 
0x00, 0x00, 0x60, 0x00, 
0x00, 0x00, 0x20, 0x00, 
0x00, 0x00, 0x30, 0x00, 
0x00, 0x00, 0x18, 0x00, 
0x30, 0x00, 0x08, 0x00, 
0x60, 0x00, 0x0c, 0x00, 
0xc0, 0x00, 0x06, 0x00, 
0x80, 0x01, 0x02, 0x00, 
0x00, 0x03, 0x03, 0x00, 
0x00, 0x86, 0x01, 0x00, 
0x00, 0x8c, 0x00, 0x00, 
0x00, 0xd8, 0x00, 0x00, 
0x00, 0x70, 0x00, 0x00, 
0x00, 0x00, 0x00, 0x00, 
0x00, 0x00, 0x00, 0x00, 
0x00, 0x00, 0x00, 0x00, 
0x00, 0x00, 0x00, 0x00, 
0x00, 0x00, 0x00, 0x00, 
}; 
